<?xml version="1.0"?>
<svg width="1280" height="1280" xmlns="http://www.w3.org/2000/svg" xmlns:svg="http://www.w3.org/2000/svg" preserveAspectRatio="xMidYMid meet" version="1.0">
 <metadata>Created by potrace 1.15, written by Peter Selinger 2001-2017</metadata>
 <g class="layer">
  <title>Layer 1</title>
  <g fill="#000000" id="svg_1" stroke-opacity="0" transform="matrix(0.1 0 0 -0.1 0 0)">
   <path d="m0,-1517l1,-178l27,-20c15,-11 157,-130 317,-265c160,-134 585,-490 945,-789c360,-300 781,-651 935,-780c154,-129 282,-236 284,-238c3,-2 -23,-32 -57,-66c-34,-34 -62,-65 -62,-69c0,-3 20,0 45,8c25,7 74,20 110,29l64,16l97,-81c180,-153 247,-183 313,-144c29,17 64,63 80,106c10,26 5,33 -98,137l-108,110l76,16c82,18 240,55 471,111c396,96 500,115 785,144c225,23 321,24 550,10c429,-27 455,-31 735,-99c314,-76 397,-91 535,-91c342,0 523,141 485,378c-35,214 -244,389 -533,446c-252,50 -843,76 -1092,47c-284,-33 -490,-67 -815,-137c-103,-22 -366,-109 -535,-178c-294,-120 -419,-197 -773,-477c-47,-38 -54,-41 -70,-27c-9,8 -460,384 -1002,834c-542,451 -1142,953 -1335,1115c-192,162 -356,298 -362,303c-10,6 -13,-31 -13,-171z" fill="#ffffff" id="svg_2" stroke="#000000" stroke-width="40"/>
   <path d="m8172,-2091c-308,-55 -596,-276 -722,-552c-56,-123 -75,-218 -74,-362c1,-155 21,-243 88,-380c156,-319 458,-516 818,-532c143,-7 238,5 363,44c342,108 583,390 651,764c15,79 15,105 6,180c-21,157 -78,300 -177,447c-115,173 -324,314 -552,373c-90,23 -317,34 -401,18z" fill="#ffffff" id="svg_3" stroke="#000000" stroke-width="40"/>
   <path d="m8367,-4331c-124,-29 -239,-145 -295,-299c-19,-52 -24,-86 -25,-170c-2,-166 29,-270 153,-515c293,-577 712,-1080 1227,-1473c273,-208 527,-345 790,-427l91,-29l-34,-39c-39,-46 -67,-122 -62,-169c3,-32 5,-33 78,-50c41,-10 85,-16 97,-13c12,3 69,36 127,75c114,76 144,91 172,85c11,-2 69,-14 129,-26c61,-11 128,-25 150,-29c22,-5 41,-7 43,-6c1,2 -42,43 -97,92c-55,49 -99,92 -98,96c1,4 263,197 583,430c319,233 766,558 992,723l411,300l0,172l1,172l-307,-227c-613,-453 -1934,-1412 -1945,-1412c-4,0 -65,53 -136,118c-70,64 -204,185 -297,268c-272,243 -398,380 -586,639c-138,190 -278,413 -352,561c-66,132 -106,233 -196,498c-45,132 -100,274 -122,316c-74,139 -198,262 -325,325c-53,26 -99,30 -167,14z" fill="#ffffff" id="svg_4" stroke="#000000" stroke-width="40"/>
   <path d="m4495,-4927c-54,-6 -149,-35 -197,-59c-67,-34 -110,-74 -143,-136c-25,-45 -29,-64 -29,-123c2,-111 71,-295 171,-453c169,-266 508,-648 860,-970c61,-56 166,-165 233,-242l120,-140l-13,-33c-21,-49 -88,-101 -161,-125c-34,-11 -132,-34 -217,-51c-429,-83 -744,-185 -1234,-399c-207,-90 -845,-388 -845,-394c0,-2 111,0 247,4c239,6 413,16 688,38c72,6 182,15 245,20c142,12 496,36 730,49c109,7 252,24 380,46c703,119 822,150 969,249c72,48 77,54 95,110l18,58l59,-58c57,-57 89,-106 89,-138c0,-18 -76,-58 -217,-115c-126,-50 -196,-71 -426,-126c-400,-97 -719,-221 -1502,-586l-309,-144l124,-3c69,-2 244,4 390,13c251,14 336,21 638,45c360,29 511,39 657,45c229,10 564,59 998,146c246,50 303,67 397,123c122,72 137,89 168,186c23,75 26,101 26,230c0,153 -14,237 -68,400c-127,392 -430,924 -767,1345c-252,317 -455,486 -671,562c-61,22 -98,27 -228,33c-99,4 -162,11 -175,19c-11,7 -34,32 -52,54c-53,69 -174,199 -248,267c-136,123 -304,216 -444,246c-60,12 -276,17 -356,7z" fill="#ffffff" id="svg_5" stroke="#000000" stroke-width="40"/>
   <path d="m0,-6628c0,-155 1,-159 22,-169c13,-6 466,-273 1008,-593c542,-321 1946,-1150 3120,-1843c2570,-1516 4243,-2506 4326,-2558c339,-214 802,-240 1010,-57c108,95 116,196 21,252c-48,29 -58,27 -224,-60c-112,-58 -113,-58 -193,-57c-110,3 -206,31 -368,109l-137,66l100,48c109,53 154,90 185,150c33,64 27,106 -20,152c-28,26 -50,38 -70,38c-17,0 -88,-30 -166,-70c-118,-61 -143,-70 -189,-70c-113,0 -317,63 -495,152c-69,35 -726,418 -1460,852c-4711,2784 -6459,3816 -6464,3816c-3,0 -6,-71 -6,-158z" fill="#ffffff" id="svg_6" stroke="#000000" stroke-width="40"/>
  </g>
 </g>
</svg>