<svg width="43" height="47" viewBox="0 0 43 47" fill="none" xmlns="http://www.w3.org/2000/svg">
<mask id="path-1-outside-1" maskUnits="userSpaceOnUse" x="0" y="0" width="43" height="47" fill="black">
<rect fill="white" width="43" height="47"/>
<path d="M41.098 23.6758L30.489 29.8191C30.434 29.5997 30.3791 29.3803 30.2691 29.2157C30.1592 29.0511 30.0493 28.8866 29.8843 28.722L26.1465 25.5407L20.8145 21.0978L20.7595 21.043C20.7046 20.9333 20.7595 20.7687 20.8695 20.7138L29.9943 15.4482C32.248 14.1866 32.9626 11.3344 31.6983 9.08551C31.5334 8.75641 31.3135 8.48215 31.0387 8.2079L41.7026 2.06463C41.9775 1.90007 42.0874 1.57097 41.9225 1.29672C41.7576 1.02246 41.4278 0.912762 41.153 1.07731L30.0493 7.43999C29.5545 7.11089 29.0048 6.89148 28.4002 6.83663L18.4508 5.08141C17.1866 4.86201 15.8673 5.19111 14.8779 5.90417C14.8229 5.35567 14.713 4.80716 14.4931 4.36835C15.2627 4.2038 15.8123 3.49074 15.8123 2.72283C15.8123 1.79037 15.0428 1.02246 14.1083 1.02246C13.3387 1.02246 12.7341 1.51612 12.5142 2.17433C11.8546 1.79037 11.085 1.57097 10.2605 1.57097C7.9518 1.57097 6.08286 3.21649 5.69808 5.41052C5.64311 5.68477 5.64311 5.90417 5.64311 6.17843C5.64311 7.00118 5.86299 7.82394 6.24777 8.48215C6.24777 8.48215 6.24777 8.537 6.30274 8.537C7.12727 9.90827 8.61143 10.7859 10.3155 10.7859C10.9751 10.7859 11.6347 10.6213 12.1844 10.4019L11.6897 11.3892L6.24777 14.4609L4.87355 13.9672L4.04902 13.7478C2.89467 13.309 1.63039 13.9124 1.19064 15.0642C0.750892 16.2161 1.35555 17.4777 2.50989 17.9165L3.27946 18.1907L8.61143 20.1105C9.05118 20.275 9.49093 20.3299 9.93068 20.3299C11.3599 20.3299 12.7341 19.5071 13.3937 18.081L15.4276 13.693L16.9117 13.9672C17.4064 14.0769 17.9012 14.0769 18.3959 14.0769C19.88 14.0769 21.3642 13.693 22.6834 12.9251L29.9393 8.75641C30.2142 8.97581 30.434 9.25006 30.5989 9.57917C31.0937 10.4019 31.2036 11.3344 30.9288 12.212C30.7089 13.0896 30.1042 13.8575 29.2797 14.3512L20.1549 19.6168C19.4952 20.0008 19.2754 20.8784 19.6602 21.5366C19.7701 21.7012 19.8251 21.8109 19.99 21.9206L24.7173 25.8698L22.0238 27.4056L17.2415 23.4564C16.9117 23.1821 16.6369 22.853 16.472 22.5239C15.4825 20.8236 16.0872 18.6844 17.7362 17.7519L25.5418 13.2542C25.8167 13.0896 25.9266 12.7605 25.7617 12.4863C25.5968 12.212 25.267 12.1023 24.9921 12.2668L17.1866 16.7646C14.9328 18.0262 14.2182 20.8784 15.4825 23.1273C15.7574 23.6209 16.0872 24.0049 16.5269 24.3888L21.639 28.6123L22.7934 29.5997C22.8483 29.6545 22.8483 29.7094 22.9033 29.7642C22.9033 29.8191 22.9033 29.8739 22.8483 29.9288L20.1549 33.1101C19.4952 33.878 19.6052 35.0299 20.3748 35.6332C20.3748 35.6332 20.3747 35.6332 20.4297 35.6332L4.98349 44.4642C4.04902 45.0127 2.83971 44.9578 1.9602 44.2448C1.68536 44.0254 1.35555 44.0802 1.13567 44.3545C0.915798 44.6287 0.970766 44.9578 1.24561 45.1772C1.9602 45.7257 2.78474 46 3.60927 46C4.26889 46 4.92852 45.8355 5.53318 45.5063L22.2987 35.8526L23.0682 35.4138L27.1909 33.0552C27.3008 33.0004 27.4108 33.0004 27.4657 32.8907L41.6477 24.7179C41.9225 24.5534 42.0325 24.2243 41.8675 23.95C41.7026 23.6209 41.3728 23.5112 41.098 23.6758ZM14.1083 2.11948C14.4381 2.11948 14.658 2.39373 14.658 2.66798C14.658 2.94224 14.3832 3.21649 14.1083 3.21649C13.8335 3.21649 13.5586 2.94224 13.5586 2.66798C13.5586 2.39373 13.7785 2.11948 14.1083 2.11948ZM10.2055 2.66798C12.1294 2.66798 13.7235 4.25865 13.7235 6.17843C13.7235 7.8788 12.5142 9.25006 10.9201 9.57917C11.9645 8.86611 12.5692 7.65939 12.4043 6.34298C12.4043 6.28813 12.4043 6.28813 12.3493 6.23328C12.3493 6.17843 12.3493 6.17843 12.2943 6.12357C12.2943 6.06872 12.2394 6.06872 12.2394 6.06872L12.1844 6.01387C12.1844 6.01387 12.1294 5.95902 12.0745 5.95902C12.0195 5.95902 12.0195 5.90417 11.9645 5.90417L6.9074 5.02656C7.40211 3.65529 8.72137 2.66798 10.2055 2.66798ZM11.3049 6.94633C11.2499 7.65939 10.8651 8.37245 10.2055 8.75641C9.7108 9.03066 9.10615 9.14036 8.55646 8.97581C8.00677 8.81126 7.56702 8.48215 7.23721 7.9885C7.23721 7.9885 7.23721 7.9885 7.23721 7.93365L9.49093 6.61723L11.3049 6.94633ZM10.8102 13.2542L9.7108 15.5579C9.65583 15.6676 9.5459 15.7224 9.43596 15.6676L7.62199 15.0094L10.8102 13.2542ZM22.1338 11.9926C20.6496 12.8702 18.8906 13.1445 17.1866 12.8702L15.9772 12.6508L16.362 11.828C16.472 11.5538 16.362 11.1698 16.0872 11.0601C15.8123 10.9504 15.4825 11.0601 15.3176 11.3344L12.4043 17.5874C11.7996 18.8489 10.3704 19.4523 9.05118 18.9586L4.26889 17.2034L4.98349 15.2288L9.05118 16.7098C9.21608 16.7646 9.38099 16.8195 9.5459 16.8195C10.0956 16.8195 10.5903 16.5452 10.8102 15.9967L14.4931 8.0982C15.1527 6.67208 16.7468 5.84932 18.2859 6.12357L28.2353 7.93365C28.4552 7.9885 28.675 8.04335 28.8949 8.0982L22.1338 11.9926ZM21.0344 34.7556C20.7595 34.5362 20.7046 34.0974 20.9794 33.8232L23.6729 30.6418C23.8928 30.3676 24.0027 29.9836 24.0027 29.5997C23.9477 29.2157 23.7828 28.8866 23.508 28.6672L23.0133 28.2284L25.7067 26.6926L29.1698 29.5997C29.2247 29.6545 29.2797 29.7094 29.3347 29.7642C29.4446 29.9288 29.4446 30.0933 29.3896 30.2579C29.3347 30.4224 29.2247 30.587 29.1148 30.6418L21.8589 34.8105C21.5291 34.9202 21.2542 34.9202 21.0344 34.7556Z"/>
</mask>
<path d="M41.098 23.6758L30.489 29.8191C30.434 29.5997 30.3791 29.3803 30.2691 29.2157C30.1592 29.0511 30.0493 28.8866 29.8843 28.722L26.1465 25.5407L20.8145 21.0978L20.7595 21.043C20.7046 20.9333 20.7595 20.7687 20.8695 20.7138L29.9943 15.4482C32.248 14.1866 32.9626 11.3344 31.6983 9.08551C31.5334 8.75641 31.3135 8.48215 31.0387 8.2079L41.7026 2.06463C41.9775 1.90007 42.0874 1.57097 41.9225 1.29672C41.7576 1.02246 41.4278 0.912762 41.153 1.07731L30.0493 7.43999C29.5545 7.11089 29.0048 6.89148 28.4002 6.83663L18.4508 5.08141C17.1866 4.86201 15.8673 5.19111 14.8779 5.90417C14.8229 5.35567 14.713 4.80716 14.4931 4.36835C15.2627 4.2038 15.8123 3.49074 15.8123 2.72283C15.8123 1.79037 15.0428 1.02246 14.1083 1.02246C13.3387 1.02246 12.7341 1.51612 12.5142 2.17433C11.8546 1.79037 11.085 1.57097 10.2605 1.57097C7.9518 1.57097 6.08286 3.21649 5.69808 5.41052C5.64311 5.68477 5.64311 5.90417 5.64311 6.17843C5.64311 7.00118 5.86299 7.82394 6.24777 8.48215C6.24777 8.48215 6.24777 8.537 6.30274 8.537C7.12727 9.90827 8.61143 10.7859 10.3155 10.7859C10.9751 10.7859 11.6347 10.6213 12.1844 10.4019L11.6897 11.3892L6.24777 14.4609L4.87355 13.9672L4.04902 13.7478C2.89467 13.309 1.63039 13.9124 1.19064 15.0642C0.750892 16.2161 1.35555 17.4777 2.50989 17.9165L3.27946 18.1907L8.61143 20.1105C9.05118 20.275 9.49093 20.3299 9.93068 20.3299C11.3599 20.3299 12.7341 19.5071 13.3937 18.081L15.4276 13.693L16.9117 13.9672C17.4064 14.0769 17.9012 14.0769 18.3959 14.0769C19.88 14.0769 21.3642 13.693 22.6834 12.9251L29.9393 8.75641C30.2142 8.97581 30.434 9.25006 30.5989 9.57917C31.0937 10.4019 31.2036 11.3344 30.9288 12.212C30.7089 13.0896 30.1042 13.8575 29.2797 14.3512L20.1549 19.6168C19.4952 20.0008 19.2754 20.8784 19.6602 21.5366C19.7701 21.7012 19.8251 21.8109 19.99 21.9206L24.7173 25.8698L22.0238 27.4056L17.2415 23.4564C16.9117 23.1821 16.6369 22.853 16.472 22.5239C15.4825 20.8236 16.0872 18.6844 17.7362 17.7519L25.5418 13.2542C25.8167 13.0896 25.9266 12.7605 25.7617 12.4863C25.5968 12.212 25.267 12.1023 24.9921 12.2668L17.1866 16.7646C14.9328 18.0262 14.2182 20.8784 15.4825 23.1273C15.7574 23.6209 16.0872 24.0049 16.5269 24.3888L21.639 28.6123L22.7934 29.5997C22.8483 29.6545 22.8483 29.7094 22.9033 29.7642C22.9033 29.8191 22.9033 29.8739 22.8483 29.9288L20.1549 33.1101C19.4952 33.878 19.6052 35.0299 20.3748 35.6332C20.3748 35.6332 20.3747 35.6332 20.4297 35.6332L4.98349 44.4642C4.04902 45.0127 2.83971 44.9578 1.9602 44.2448C1.68536 44.0254 1.35555 44.0802 1.13567 44.3545C0.915798 44.6287 0.970766 44.9578 1.24561 45.1772C1.9602 45.7257 2.78474 46 3.60927 46C4.26889 46 4.92852 45.8355 5.53318 45.5063L22.2987 35.8526L23.0682 35.4138L27.1909 33.0552C27.3008 33.0004 27.4108 33.0004 27.4657 32.8907L41.6477 24.7179C41.9225 24.5534 42.0325 24.2243 41.8675 23.95C41.7026 23.6209 41.3728 23.5112 41.098 23.6758ZM14.1083 2.11948C14.4381 2.11948 14.658 2.39373 14.658 2.66798C14.658 2.94224 14.3832 3.21649 14.1083 3.21649C13.8335 3.21649 13.5586 2.94224 13.5586 2.66798C13.5586 2.39373 13.7785 2.11948 14.1083 2.11948ZM10.2055 2.66798C12.1294 2.66798 13.7235 4.25865 13.7235 6.17843C13.7235 7.8788 12.5142 9.25006 10.9201 9.57917C11.9645 8.86611 12.5692 7.65939 12.4043 6.34298C12.4043 6.28813 12.4043 6.28813 12.3493 6.23328C12.3493 6.17843 12.3493 6.17843 12.2943 6.12357C12.2943 6.06872 12.2394 6.06872 12.2394 6.06872L12.1844 6.01387C12.1844 6.01387 12.1294 5.95902 12.0745 5.95902C12.0195 5.95902 12.0195 5.90417 11.9645 5.90417L6.9074 5.02656C7.40211 3.65529 8.72137 2.66798 10.2055 2.66798ZM11.3049 6.94633C11.2499 7.65939 10.8651 8.37245 10.2055 8.75641C9.7108 9.03066 9.10615 9.14036 8.55646 8.97581C8.00677 8.81126 7.56702 8.48215 7.23721 7.9885C7.23721 7.9885 7.23721 7.9885 7.23721 7.93365L9.49093 6.61723L11.3049 6.94633ZM10.8102 13.2542L9.7108 15.5579C9.65583 15.6676 9.5459 15.7224 9.43596 15.6676L7.62199 15.0094L10.8102 13.2542ZM22.1338 11.9926C20.6496 12.8702 18.8906 13.1445 17.1866 12.8702L15.9772 12.6508L16.362 11.828C16.472 11.5538 16.362 11.1698 16.0872 11.0601C15.8123 10.9504 15.4825 11.0601 15.3176 11.3344L12.4043 17.5874C11.7996 18.8489 10.3704 19.4523 9.05118 18.9586L4.26889 17.2034L4.98349 15.2288L9.05118 16.7098C9.21608 16.7646 9.38099 16.8195 9.5459 16.8195C10.0956 16.8195 10.5903 16.5452 10.8102 15.9967L14.4931 8.0982C15.1527 6.67208 16.7468 5.84932 18.2859 6.12357L28.2353 7.93365C28.4552 7.9885 28.675 8.04335 28.8949 8.0982L22.1338 11.9926ZM21.0344 34.7556C20.7595 34.5362 20.7046 34.0974 20.9794 33.8232L23.6729 30.6418C23.8928 30.3676 24.0027 29.9836 24.0027 29.5997C23.9477 29.2157 23.7828 28.8866 23.508 28.6672L23.0133 28.2284L25.7067 26.6926L29.1698 29.5997C29.2247 29.6545 29.2797 29.7094 29.3347 29.7642C29.4446 29.9288 29.4446 30.0933 29.3896 30.2579C29.3347 30.4224 29.2247 30.587 29.1148 30.6418L21.8589 34.8105C21.5291 34.9202 21.2542 34.9202 21.0344 34.7556Z" fill="#57617A"/>
<path d="M41.098 23.6758L30.489 29.8191C30.434 29.5997 30.3791 29.3803 30.2691 29.2157C30.1592 29.0511 30.0493 28.8866 29.8843 28.722L26.1465 25.5407L20.8145 21.0978L20.7595 21.043C20.7046 20.9333 20.7595 20.7687 20.8695 20.7138L29.9943 15.4482C32.248 14.1866 32.9626 11.3344 31.6983 9.08551C31.5334 8.75641 31.3135 8.48215 31.0387 8.2079L41.7026 2.06463C41.9775 1.90007 42.0874 1.57097 41.9225 1.29672C41.7576 1.02246 41.4278 0.912762 41.153 1.07731L30.0493 7.43999C29.5545 7.11089 29.0048 6.89148 28.4002 6.83663L18.4508 5.08141C17.1866 4.86201 15.8673 5.19111 14.8779 5.90417C14.8229 5.35567 14.713 4.80716 14.4931 4.36835C15.2627 4.2038 15.8123 3.49074 15.8123 2.72283C15.8123 1.79037 15.0428 1.02246 14.1083 1.02246C13.3387 1.02246 12.7341 1.51612 12.5142 2.17433C11.8546 1.79037 11.085 1.57097 10.2605 1.57097C7.9518 1.57097 6.08286 3.21649 5.69808 5.41052C5.64311 5.68477 5.64311 5.90417 5.64311 6.17843C5.64311 7.00118 5.86299 7.82394 6.24777 8.48215C6.24777 8.48215 6.24777 8.537 6.30274 8.537C7.12727 9.90827 8.61143 10.7859 10.3155 10.7859C10.9751 10.7859 11.6347 10.6213 12.1844 10.4019L11.6897 11.3892L6.24777 14.4609L4.87355 13.9672L4.04902 13.7478C2.89467 13.309 1.63039 13.9124 1.19064 15.0642C0.750892 16.2161 1.35555 17.4777 2.50989 17.9165L3.27946 18.1907L8.61143 20.1105C9.05118 20.275 9.49093 20.3299 9.93068 20.3299C11.3599 20.3299 12.7341 19.5071 13.3937 18.081L15.4276 13.693L16.9117 13.9672C17.4064 14.0769 17.9012 14.0769 18.3959 14.0769C19.88 14.0769 21.3642 13.693 22.6834 12.9251L29.9393 8.75641C30.2142 8.97581 30.434 9.25006 30.5989 9.57917C31.0937 10.4019 31.2036 11.3344 30.9288 12.212C30.7089 13.0896 30.1042 13.8575 29.2797 14.3512L20.1549 19.6168C19.4952 20.0008 19.2754 20.8784 19.6602 21.5366C19.7701 21.7012 19.8251 21.8109 19.99 21.9206L24.7173 25.8698L22.0238 27.4056L17.2415 23.4564C16.9117 23.1821 16.6369 22.853 16.472 22.5239C15.4825 20.8236 16.0872 18.6844 17.7362 17.7519L25.5418 13.2542C25.8167 13.0896 25.9266 12.7605 25.7617 12.4863C25.5968 12.212 25.267 12.1023 24.9921 12.2668L17.1866 16.7646C14.9328 18.0262 14.2182 20.8784 15.4825 23.1273C15.7574 23.6209 16.0872 24.0049 16.5269 24.3888L21.639 28.6123L22.7934 29.5997C22.8483 29.6545 22.8483 29.7094 22.9033 29.7642C22.9033 29.8191 22.9033 29.8739 22.8483 29.9288L20.1549 33.1101C19.4952 33.878 19.6052 35.0299 20.3748 35.6332C20.3748 35.6332 20.3747 35.6332 20.4297 35.6332L4.98349 44.4642C4.04902 45.0127 2.83971 44.9578 1.9602 44.2448C1.68536 44.0254 1.35555 44.0802 1.13567 44.3545C0.915798 44.6287 0.970766 44.9578 1.24561 45.1772C1.9602 45.7257 2.78474 46 3.60927 46C4.26889 46 4.92852 45.8355 5.53318 45.5063L22.2987 35.8526L23.0682 35.4138L27.1909 33.0552C27.3008 33.0004 27.4108 33.0004 27.4657 32.8907L41.6477 24.7179C41.9225 24.5534 42.0325 24.2243 41.8675 23.95C41.7026 23.6209 41.3728 23.5112 41.098 23.6758ZM14.1083 2.11948C14.4381 2.11948 14.658 2.39373 14.658 2.66798C14.658 2.94224 14.3832 3.21649 14.1083 3.21649C13.8335 3.21649 13.5586 2.94224 13.5586 2.66798C13.5586 2.39373 13.7785 2.11948 14.1083 2.11948ZM10.2055 2.66798C12.1294 2.66798 13.7235 4.25865 13.7235 6.17843C13.7235 7.8788 12.5142 9.25006 10.9201 9.57917C11.9645 8.86611 12.5692 7.65939 12.4043 6.34298C12.4043 6.28813 12.4043 6.28813 12.3493 6.23328C12.3493 6.17843 12.3493 6.17843 12.2943 6.12357C12.2943 6.06872 12.2394 6.06872 12.2394 6.06872L12.1844 6.01387C12.1844 6.01387 12.1294 5.95902 12.0745 5.95902C12.0195 5.95902 12.0195 5.90417 11.9645 5.90417L6.9074 5.02656C7.40211 3.65529 8.72137 2.66798 10.2055 2.66798ZM11.3049 6.94633C11.2499 7.65939 10.8651 8.37245 10.2055 8.75641C9.7108 9.03066 9.10615 9.14036 8.55646 8.97581C8.00677 8.81126 7.56702 8.48215 7.23721 7.9885C7.23721 7.9885 7.23721 7.9885 7.23721 7.93365L9.49093 6.61723L11.3049 6.94633ZM10.8102 13.2542L9.7108 15.5579C9.65583 15.6676 9.5459 15.7224 9.43596 15.6676L7.62199 15.0094L10.8102 13.2542ZM22.1338 11.9926C20.6496 12.8702 18.8906 13.1445 17.1866 12.8702L15.9772 12.6508L16.362 11.828C16.472 11.5538 16.362 11.1698 16.0872 11.0601C15.8123 10.9504 15.4825 11.0601 15.3176 11.3344L12.4043 17.5874C11.7996 18.8489 10.3704 19.4523 9.05118 18.9586L4.26889 17.2034L4.98349 15.2288L9.05118 16.7098C9.21608 16.7646 9.38099 16.8195 9.5459 16.8195C10.0956 16.8195 10.5903 16.5452 10.8102 15.9967L14.4931 8.0982C15.1527 6.67208 16.7468 5.84932 18.2859 6.12357L28.2353 7.93365C28.4552 7.9885 28.675 8.04335 28.8949 8.0982L22.1338 11.9926ZM21.0344 34.7556C20.7595 34.5362 20.7046 34.0974 20.9794 33.8232L23.6729 30.6418C23.8928 30.3676 24.0027 29.9836 24.0027 29.5997C23.9477 29.2157 23.7828 28.8866 23.508 28.6672L23.0133 28.2284L25.7067 26.6926L29.1698 29.5997C29.2247 29.6545 29.2797 29.7094 29.3347 29.7642C29.4446 29.9288 29.4446 30.0933 29.3896 30.2579C29.3347 30.4224 29.2247 30.587 29.1148 30.6418L21.8589 34.8105C21.5291 34.9202 21.2542 34.9202 21.0344 34.7556Z" stroke="#57617A" stroke-width="0.6" mask="url(#path-1-outside-1)"/>
</svg>
